<?xml version="1.0" encoding="UTF-8" standalone="no"?>
<!DOCTYPE svg PUBLIC "-//W3C//DTD SVG 1.1//EN"
 "http://www.w3.org/Graphics/SVG/1.1/DTD/svg11.dtd">
<!-- Generated by graphviz version 14.1.5 (20260411.2331)
 -->
<!-- Title: G Pages: 1 -->
<svg width="257pt" height="152pt"
 viewBox="0.00 0.00 257.00 152.00" xmlns="http://www.w3.org/2000/svg" xmlns:xlink="http://www.w3.org/1999/xlink">
<g id="graph0" class="graph" transform="scale(1 1) rotate(0) translate(4 148)">
<title>G</title>
<polygon fill="white" stroke="none" points="-4,4 -4,-148 252.5,-148 252.5,4 -4,4"/>
<!-- utils -->
<g id="node1" class="node">
<title>utils</title>
<polygon fill="none" stroke="black" points="61.25,-36 7.25,-36 7.25,0 61.25,0 61.25,-36"/>
<text xml:space="preserve" text-anchor="middle" x="34.25" y="-14.32" font-family="Helvetica,sans-Serif" font-size="9.00">utils</text>
</g>
<!-- utils.training_utils -->
<g id="node2" class="node">
<title>utils.training_utils</title>
<polygon fill="none" stroke="black" points="68.5,-90 0,-90 0,-54 68.5,-54 68.5,-90"/>
<text xml:space="preserve" text-anchor="middle" x="34.25" y="-68.33" font-family="Helvetica,sans-Serif" font-size="9.00">training_utils</text>
</g>
<!-- model -->
<g id="node3" class="node">
<title>model</title>
<polygon fill="none" stroke="black" points="61.25,-144 7.25,-144 7.25,-108 61.25,-108 61.25,-144"/>
<text xml:space="preserve" text-anchor="middle" x="34.25" y="-122.33" font-family="Helvetica,sans-Serif" font-size="9.00">model</text>
</g>
<!-- model.kronos -->
<g id="node4" class="node">
<title>model.kronos</title>
<polygon fill="none" stroke="black" points="158.5,-144 104.5,-144 104.5,-108 158.5,-108 158.5,-144"/>
<text xml:space="preserve" text-anchor="middle" x="131.5" y="-122.33" font-family="Helvetica,sans-Serif" font-size="9.00">kronos</text>
</g>
<!-- model&#45;&gt;model.kronos -->
<g id="edge1" class="edge">
<title>model&#45;&gt;model.kronos</title>
<path fill="none" stroke="#888888" d="M61.53,-126C72.46,-126 85.28,-126 96.89,-126"/>
<polygon fill="#888888" stroke="#888888" points="96.79,-128.1 102.79,-126 96.79,-123.9 96.79,-128.1"/>
</g>
<!-- model.module -->
<g id="node5" class="node">
<title>model.module</title>
<polygon fill="none" stroke="black" points="248.5,-144 194.5,-144 194.5,-108 248.5,-108 248.5,-144"/>
<text xml:space="preserve" text-anchor="middle" x="221.5" y="-122.33" font-family="Helvetica,sans-Serif" font-size="9.00">module</text>
</g>
<!-- model.kronos&#45;&gt;model.module -->
<g id="edge2" class="edge">
<title>model.kronos&#45;&gt;model.module</title>
<path fill="none" stroke="#888888" d="M158.9,-126C167.69,-126 177.6,-126 186.86,-126"/>
<polygon fill="#888888" stroke="#888888" points="186.6,-128.1 192.6,-126 186.6,-123.9 186.6,-128.1"/>
</g>
</g>
</svg>
