<?xml version="1.0" encoding="UTF-8" standalone="no"?>
<!DOCTYPE svg PUBLIC "-//W3C//DTD SVG 1.1//EN"
 "http://www.w3.org/Graphics/SVG/1.1/DTD/svg11.dtd">
<!-- Generated by graphviz version 14.1.5 (20260411.2331)
 -->
<!-- Title: G Pages: 1 -->
<svg width="92pt" height="908pt"
 viewBox="0.00 0.00 92.00 908.00" xmlns="http://www.w3.org/2000/svg" xmlns:xlink="http://www.w3.org/1999/xlink">
<g id="graph0" class="graph" transform="scale(1 1) rotate(0) translate(4 904)">
<title>G</title>
<polygon fill="white" stroke="none" points="-4,4 -4,-904 88.25,-904 88.25,4 -4,4"/>
<!-- repo.claude&#45;for&#45;msft&#45;365&#45;install.examples.python&#45;bootstrap.config -->
<g id="node1" class="node">
<title>repo.claude&#45;for&#45;msft&#45;365&#45;install.examples.python&#45;bootstrap.config</title>
<polygon fill="none" stroke="black" points="69.12,-36 15.12,-36 15.12,0 69.12,0 69.12,-36"/>
<text xml:space="preserve" text-anchor="middle" x="42.12" y="-14.32" font-family="Helvetica,sans-Serif" font-size="9.00">config</text>
</g>
<!-- repo.claude&#45;for&#45;msft&#45;365&#45;install.examples.python&#45;bootstrap.app -->
<g id="node2" class="node">
<title>repo.claude&#45;for&#45;msft&#45;365&#45;install.examples.python&#45;bootstrap.app</title>
<polygon fill="none" stroke="black" points="69.12,-90 15.12,-90 15.12,-54 69.12,-54 69.12,-90"/>
<text xml:space="preserve" text-anchor="middle" x="42.12" y="-68.33" font-family="Helvetica,sans-Serif" font-size="9.00">app</text>
</g>
<!-- repo.claude&#45;for&#45;msft&#45;365&#45;install.examples.python&#45;bootstrap.mint_dev_token -->
<g id="node3" class="node">
<title>repo.claude&#45;for&#45;msft&#45;365&#45;install.examples.python&#45;bootstrap.mint_dev_token</title>
<polygon fill="none" stroke="black" points="82.75,-144 1.5,-144 1.5,-108 82.75,-108 82.75,-144"/>
<text xml:space="preserve" text-anchor="middle" x="42.12" y="-122.33" font-family="Helvetica,sans-Serif" font-size="9.00">mint_dev_token</text>
</g>
<!-- repo.claude&#45;for&#45;msft&#45;365&#45;install.examples.python&#45;bootstrap.get_tenant_id -->
<g id="node4" class="node">
<title>repo.claude&#45;for&#45;msft&#45;365&#45;install.examples.python&#45;bootstrap.get_tenant_id</title>
<polygon fill="none" stroke="black" points="78.25,-198 6,-198 6,-162 78.25,-162 78.25,-198"/>
<text xml:space="preserve" text-anchor="middle" x="42.12" y="-176.32" font-family="Helvetica,sans-Serif" font-size="9.00">get_tenant_id</text>
</g>
<!-- repo.plugins.vertical&#45;plugins.financial&#45;analysis.skills.ib&#45;check&#45;deck.scripts.extract_numbers -->
<g id="node5" class="node">
<title>repo.plugins.vertical&#45;plugins.financial&#45;analysis.skills.ib&#45;check&#45;deck.scripts.extract_numbers</title>
<polygon fill="none" stroke="black" points="84.25,-252 0,-252 0,-216 84.25,-216 84.25,-252"/>
<text xml:space="preserve" text-anchor="middle" x="42.12" y="-230.32" font-family="Helvetica,sans-Serif" font-size="9.00">extract_numbers</text>
</g>
<!-- repo.plugins.vertical&#45;plugins.financial&#45;analysis.skills.skill&#45;creator.scripts.init_skill -->
<g id="node6" class="node">
<title>repo.plugins.vertical&#45;plugins.financial&#45;analysis.skills.skill&#45;creator.scripts.init_skill</title>
<polygon fill="none" stroke="black" points="69.12,-306 15.12,-306 15.12,-270 69.12,-270 69.12,-306"/>
<text xml:space="preserve" text-anchor="middle" x="42.12" y="-284.32" font-family="Helvetica,sans-Serif" font-size="9.00">init_skill</text>
</g>
<!-- repo.plugins.vertical&#45;plugins.financial&#45;analysis.skills.skill&#45;creator.scripts.package_skill -->
<g id="node7" class="node">
<title>repo.plugins.vertical&#45;plugins.financial&#45;analysis.skills.skill&#45;creator.scripts.package_skill</title>
<polygon fill="none" stroke="black" points="78.25,-360 6,-360 6,-324 78.25,-324 78.25,-360"/>
<text xml:space="preserve" text-anchor="middle" x="42.12" y="-338.32" font-family="Helvetica,sans-Serif" font-size="9.00">package_skill</text>
</g>
<!-- repo.plugins.vertical&#45;plugins.financial&#45;analysis.skills.skill&#45;creator.scripts.quick_validate -->
<g id="node8" class="node">
<title>repo.plugins.vertical&#45;plugins.financial&#45;analysis.skills.skill&#45;creator.scripts.quick_validate</title>
<polygon fill="none" stroke="black" points="79.75,-414 4.5,-414 4.5,-378 79.75,-378 79.75,-414"/>
<text xml:space="preserve" text-anchor="middle" x="42.12" y="-392.32" font-family="Helvetica,sans-Serif" font-size="9.00">quick_validate</text>
</g>
<!-- repo.plugins.vertical&#45;plugins.financial&#45;analysis.skills.dcf&#45;model.scripts.validate_dcf -->
<g id="node9" class="node">
<title>repo.plugins.vertical&#45;plugins.financial&#45;analysis.skills.dcf&#45;model.scripts.validate_dcf</title>
<polygon fill="none" stroke="black" points="74.88,-468 9.38,-468 9.38,-432 74.88,-432 74.88,-468"/>
<text xml:space="preserve" text-anchor="middle" x="42.12" y="-446.32" font-family="Helvetica,sans-Serif" font-size="9.00">validate_dcf</text>
</g>
<!-- repo.plugins.agent&#45;plugins.pitch&#45;agent.skills.ib&#45;check&#45;deck.scripts.extract_numbers -->
<g id="node10" class="node">
<title>repo.plugins.agent&#45;plugins.pitch&#45;agent.skills.ib&#45;check&#45;deck.scripts.extract_numbers</title>
<polygon fill="none" stroke="black" points="84.25,-522 0,-522 0,-486 84.25,-486 84.25,-522"/>
<text xml:space="preserve" text-anchor="middle" x="42.12" y="-500.32" font-family="Helvetica,sans-Serif" font-size="9.00">extract_numbers</text>
</g>
<!-- repo.plugins.agent&#45;plugins.pitch&#45;agent.skills.dcf&#45;model.scripts.validate_dcf -->
<g id="node11" class="node">
<title>repo.plugins.agent&#45;plugins.pitch&#45;agent.skills.dcf&#45;model.scripts.validate_dcf</title>
<polygon fill="none" stroke="black" points="74.88,-576 9.38,-576 9.38,-540 74.88,-540 74.88,-576"/>
<text xml:space="preserve" text-anchor="middle" x="42.12" y="-554.33" font-family="Helvetica,sans-Serif" font-size="9.00">validate_dcf</text>
</g>
<!-- repo.plugins.agent&#45;plugins.model&#45;builder.skills.dcf&#45;model.scripts.validate_dcf -->
<g id="node12" class="node">
<title>repo.plugins.agent&#45;plugins.model&#45;builder.skills.dcf&#45;model.scripts.validate_dcf</title>
<polygon fill="none" stroke="black" points="74.88,-630 9.38,-630 9.38,-594 74.88,-594 74.88,-630"/>
<text xml:space="preserve" text-anchor="middle" x="42.12" y="-608.33" font-family="Helvetica,sans-Serif" font-size="9.00">validate_dcf</text>
</g>
<!-- repo.scripts.check -->
<g id="node13" class="node">
<title>repo.scripts.check</title>
<polygon fill="none" stroke="black" points="69.12,-684 15.12,-684 15.12,-648 69.12,-648 69.12,-684"/>
<text xml:space="preserve" text-anchor="middle" x="42.12" y="-662.33" font-family="Helvetica,sans-Serif" font-size="9.00">check</text>
</g>
<!-- repo.scripts.version_bump -->
<g id="node14" class="node">
<title>repo.scripts.version_bump</title>
<polygon fill="none" stroke="black" points="79.38,-738 4.88,-738 4.88,-702 79.38,-702 79.38,-738"/>
<text xml:space="preserve" text-anchor="middle" x="42.12" y="-716.33" font-family="Helvetica,sans-Serif" font-size="9.00">version_bump</text>
</g>
<!-- repo.scripts.orchestrate -->
<g id="node15" class="node">
<title>repo.scripts.orchestrate</title>
<polygon fill="none" stroke="black" points="73,-792 11.25,-792 11.25,-756 73,-756 73,-792"/>
<text xml:space="preserve" text-anchor="middle" x="42.12" y="-770.33" font-family="Helvetica,sans-Serif" font-size="9.00">orchestrate</text>
</g>
<!-- repo.scripts.validate -->
<g id="node16" class="node">
<title>repo.scripts.validate</title>
<polygon fill="none" stroke="black" points="69.12,-846 15.12,-846 15.12,-810 69.12,-810 69.12,-846"/>
<text xml:space="preserve" text-anchor="middle" x="42.12" y="-824.33" font-family="Helvetica,sans-Serif" font-size="9.00">validate</text>
</g>
<!-- repo.scripts.sync&#45;agent&#45;skills -->
<g id="node17" class="node">
<title>repo.scripts.sync&#45;agent&#45;skills</title>
<polygon fill="none" stroke="black" points="84.25,-900 0,-900 0,-864 84.25,-864 84.25,-900"/>
<text xml:space="preserve" text-anchor="middle" x="42.12" y="-878.33" font-family="Helvetica,sans-Serif" font-size="9.00">sync&#45;agent&#45;skills</text>
</g>
</g>
</svg>
