<?xml version="1.0" encoding="UTF-8" standalone="no"?>
<!DOCTYPE svg PUBLIC "-//W3C//DTD SVG 1.1//EN"
 "http://www.w3.org/Graphics/SVG/1.1/DTD/svg11.dtd">
<!-- Generated by graphviz version 14.1.5 (20260411.2331)
 -->
<!-- Title: G Pages: 1 -->
<svg width="1714pt" height="1531pt"
 viewBox="0.00 0.00 1714.00 1531.00" xmlns="http://www.w3.org/2000/svg" xmlns:xlink="http://www.w3.org/1999/xlink">
<g id="graph0" class="graph" transform="scale(1 1) rotate(0) translate(4 1527)">
<title>G</title>
<polygon fill="white" stroke="none" points="-4,4 -4,-1527 1710.25,-1527 1710.25,4 -4,4"/>
<!-- flask.logging -->
<g id="node1" class="node">
<title>flask.logging</title>
<polygon fill="none" stroke="black" points="54,-442 0,-442 0,-406 54,-406 54,-442"/>
<text xml:space="preserve" text-anchor="middle" x="27" y="-420.32" font-family="Helvetica,sans-Serif" font-size="9.00">logging</text>
</g>
<!-- flask.globals -->
<g id="node6" class="node">
<title>flask.globals</title>
<polygon fill="none" stroke="black" points="144,-985 90,-985 90,-949 144,-949 144,-985"/>
<text xml:space="preserve" text-anchor="middle" x="117" y="-963.33" font-family="Helvetica,sans-Serif" font-size="9.00">globals</text>
</g>
<!-- flask.logging&#45;&gt;flask.globals -->
<g id="edge2" class="edge">
<title>flask.logging&#45;&gt;flask.globals</title>
<path fill="none" stroke="#888888" d="M30.98,-442.38C44.08,-523.19 96.58,-847.14 111.83,-941.25"/>
<polygon fill="#888888" stroke="#888888" points="109.75,-941.55 112.78,-947.13 113.89,-940.87 109.75,-941.55"/>
</g>
<!-- flask.sansio.app -->
<g id="node20" class="node">
<title>flask.sansio.app</title>
<polygon fill="none" stroke="black" points="594.25,-544 540.25,-544 540.25,-508 594.25,-508 594.25,-544"/>
<text xml:space="preserve" text-anchor="middle" x="567.25" y="-522.33" font-family="Helvetica,sans-Serif" font-size="9.00">app</text>
</g>
<!-- flask.logging&#45;&gt;flask.sansio.app -->
<g id="edge1" class="edge">
<title>flask.logging&#45;&gt;flask.sansio.app</title>
<path fill="none" stroke="#888888" d="M54.24,-417.85C88.96,-415 152.07,-415 206,-415 206,-415 206,-415 298.12,-415 392.26,-415 493.55,-470.6 540.12,-503.33"/>
<polygon fill="#888888" stroke="#888888" points="538.73,-504.91 544.83,-506.7 541.18,-501.5 538.73,-504.91"/>
</g>
<!-- flask.signals -->
<g id="node2" class="node">
<title>flask.signals</title>
<polygon fill="none" stroke="black" points="1706.25,-716 1652.25,-716 1652.25,-680 1706.25,-680 1706.25,-716"/>
<text xml:space="preserve" text-anchor="middle" x="1679.25" y="-694.33" font-family="Helvetica,sans-Serif" font-size="9.00">signals</text>
</g>
<!-- flask.sessions -->
<g id="node3" class="node">
<title>flask.sessions</title>
<polygon fill="none" stroke="black" points="234,-1198 180,-1198 180,-1162 234,-1162 234,-1198"/>
<text xml:space="preserve" text-anchor="middle" x="207" y="-1176.33" font-family="Helvetica,sans-Serif" font-size="9.00">sessions</text>
</g>
<!-- flask.wrappers -->
<g id="node10" class="node">
<title>flask.wrappers</title>
<polygon fill="none" stroke="black" points="324.25,-948 270,-948 270,-912 324.25,-912 324.25,-948"/>
<text xml:space="preserve" text-anchor="middle" x="297.12" y="-926.33" font-family="Helvetica,sans-Serif" font-size="9.00">wrappers</text>
</g>
<!-- flask.sessions&#45;&gt;flask.wrappers -->
<g id="edge4" class="edge">
<title>flask.sessions&#45;&gt;flask.wrappers</title>
<path fill="none" stroke="#888888" d="M214.48,-1161.62C230.01,-1117.55 269.4,-1005.82 287.17,-955.39"/>
<polygon fill="#888888" stroke="#888888" points="289.12,-956.19 289.13,-949.84 285.16,-954.8 289.12,-956.19"/>
</g>
<!-- flask.app -->
<g id="node11" class="node">
<title>flask.app</title>
<polygon fill="none" stroke="black" points="1343,-915 1289,-915 1289,-879 1343,-879 1343,-915"/>
<text xml:space="preserve" text-anchor="middle" x="1316" y="-893.33" font-family="Helvetica,sans-Serif" font-size="9.00">app</text>
</g>
<!-- flask.sessions&#45;&gt;flask.app -->
<g id="edge5" class="edge">
<title>flask.sessions&#45;&gt;flask.app</title>
<path fill="none" stroke="#888888" d="M234.45,-1197.85C267.43,-1222.75 326.74,-1264 386.25,-1264 386.25,-1264 386.25,-1264 568.25,-1264 752.25,-1264 812.43,-1300.88 980.5,-1226 1133.55,-1157.81 1254.17,-985.3 1297.58,-921.23"/>
<polygon fill="#888888" stroke="#888888" points="1299.07,-922.77 1300.69,-916.62 1295.59,-920.42 1299.07,-922.77"/>
</g>
<!-- flask.json.tag -->
<g id="node24" class="node">
<title>flask.json.tag</title>
<polygon fill="none" stroke="black" points="324.12,-1149 270.12,-1149 270.12,-1113 324.12,-1113 324.12,-1149"/>
<text xml:space="preserve" text-anchor="middle" x="297.12" y="-1127.33" font-family="Helvetica,sans-Serif" font-size="9.00">tag</text>
</g>
<!-- flask.sessions&#45;&gt;flask.json.tag -->
<g id="edge3" class="edge">
<title>flask.sessions&#45;&gt;flask.json.tag</title>
<path fill="none" stroke="#888888" d="M234.44,-1165.3C243.5,-1160.26 253.76,-1154.56 263.26,-1149.27"/>
<polygon fill="#888888" stroke="#888888" points="264.16,-1151.18 268.38,-1146.43 262.12,-1147.51 264.16,-1151.18"/>
</g>
<!-- flask.config -->
<g id="node4" class="node">
<title>flask.config</title>
<polygon fill="none" stroke="black" points="1253,-310 1199,-310 1199,-274 1253,-274 1253,-310"/>
<text xml:space="preserve" text-anchor="middle" x="1226" y="-288.32" font-family="Helvetica,sans-Serif" font-size="9.00">config</text>
</g>
<!-- flask.config&#45;&gt;flask.sansio.app -->
<g id="edge6" class="edge">
<title>flask.config&#45;&gt;flask.sansio.app</title>
<path fill="none" stroke="#888888" d="M1198.67,-300.17C1158.79,-307.34 1080.9,-316.55 1016.5,-333 839.58,-378.18 784.31,-374.99 630.25,-473 617.45,-481.14 605.23,-492.34 595.06,-502.44"/>
<polygon fill="#888888" stroke="#888888" points="593.74,-500.79 591.01,-506.53 596.73,-503.75 593.74,-500.79"/>
</g>
<!-- flask.templating -->
<g id="node5" class="node">
<title>flask.templating</title>
<polygon fill="none" stroke="black" points="779,-630 720.25,-630 720.25,-594 779,-594 779,-630"/>
<text xml:space="preserve" text-anchor="middle" x="749.62" y="-608.33" font-family="Helvetica,sans-Serif" font-size="9.00">templating</text>
</g>
<!-- flask.templating&#45;&gt;flask.signals -->
<g id="edge13" class="edge">
<title>flask.templating&#45;&gt;flask.signals</title>
<path fill="none" stroke="#888888" d="M754.38,-593.51C761.56,-561.86 779.75,-496.5 815,-453 925,-317.27 1382.65,-18.49 1526.25,-118 1620.88,-183.58 1665.47,-568.91 1675.84,-672.42"/>
<polygon fill="#888888" stroke="#888888" points="1673.72,-672.38 1676.4,-678.14 1677.9,-671.96 1673.72,-672.38"/>
</g>
<!-- flask.templating&#45;&gt;flask.globals -->
<g id="edge11" class="edge">
<title>flask.templating&#45;&gt;flask.globals</title>
<path fill="none" stroke="#888888" d="M720.19,-624.61C655.11,-653.79 490.86,-729.29 360.25,-805 281.7,-850.53 194.25,-911.83 148.96,-944.42"/>
<polygon fill="#888888" stroke="#888888" points="147.99,-942.53 144.35,-947.74 150.45,-945.94 147.99,-942.53"/>
</g>
<!-- flask.debughelpers -->
<g id="node12" class="node">
<title>flask.debughelpers</title>
<polygon fill="none" stroke="black" points="888,-896 815,-896 815,-860 888,-860 888,-896"/>
<text xml:space="preserve" text-anchor="middle" x="851.5" y="-874.33" font-family="Helvetica,sans-Serif" font-size="9.00">debughelpers</text>
</g>
<!-- flask.templating&#45;&gt;flask.debughelpers -->
<g id="edge8" class="edge">
<title>flask.templating&#45;&gt;flask.debughelpers</title>
<path fill="none" stroke="#888888" d="M758.27,-630.35C764.09,-644.43 772.22,-664.38 779,-682 802.42,-742.85 828.26,-815.03 841.53,-852.52"/>
<polygon fill="#888888" stroke="#888888" points="839.53,-853.16 843.51,-858.12 843.49,-851.76 839.53,-853.16"/>
</g>
<!-- flask.ctx -->
<g id="node13" class="node">
<title>flask.ctx</title>
<polygon fill="none" stroke="black" points="1253,-670 1199,-670 1199,-634 1253,-634 1253,-670"/>
<text xml:space="preserve" text-anchor="middle" x="1226" y="-648.33" font-family="Helvetica,sans-Serif" font-size="9.00">ctx</text>
</g>
<!-- flask.templating&#45;&gt;flask.ctx -->
<g id="edge9" class="edge">
<title>flask.templating&#45;&gt;flask.ctx</title>
<path fill="none" stroke="#888888" d="M779.23,-614.41C862.15,-621.4 1102.36,-641.66 1191.33,-649.16"/>
<polygon fill="#888888" stroke="#888888" points="1191.05,-651.24 1197.21,-649.66 1191.41,-647.06 1191.05,-651.24"/>
</g>
<!-- flask.helpers -->
<g id="node16" class="node">
<title>flask.helpers</title>
<polygon fill="none" stroke="black" points="1616.25,-403 1562.25,-403 1562.25,-367 1616.25,-367 1616.25,-403"/>
<text xml:space="preserve" text-anchor="middle" x="1589.25" y="-381.32" font-family="Helvetica,sans-Serif" font-size="9.00">helpers</text>
</g>
<!-- flask.templating&#45;&gt;flask.helpers -->
<g id="edge12" class="edge">
<title>flask.templating&#45;&gt;flask.helpers</title>
<path fill="none" stroke="#888888" d="M763.18,-593.6C806.74,-532.16 958.4,-338 1135,-338 1135,-338 1135,-338 1408.62,-338 1461.21,-338 1519.71,-357.08 1555.24,-370.93"/>
<polygon fill="#888888" stroke="#888888" points="1554.27,-372.81 1560.62,-373.06 1555.82,-368.9 1554.27,-372.81"/>
</g>
<!-- flask.templating&#45;&gt;flask.sansio.app -->
<g id="edge10" class="edge">
<title>flask.templating&#45;&gt;flask.sansio.app</title>
<path fill="none" stroke="#888888" d="M719.9,-616.52C694.97,-615.2 658.54,-608.17 630.25,-593 611.1,-582.73 593.44,-565.05 581.91,-550.19"/>
<polygon fill="#888888" stroke="#888888" points="583.81,-549.23 578.56,-545.66 580.44,-551.73 583.81,-549.23"/>
</g>
<!-- flask.sansio.scaffold -->
<g id="node21" class="node">
<title>flask.sansio.scaffold</title>
<polygon fill="none" stroke="black" points="684.25,-575 630.25,-575 630.25,-539 684.25,-539 684.25,-575"/>
<text xml:space="preserve" text-anchor="middle" x="657.25" y="-553.33" font-family="Helvetica,sans-Serif" font-size="9.00">scaffold</text>
</g>
<!-- flask.templating&#45;&gt;flask.sansio.scaffold -->
<g id="edge7" class="edge">
<title>flask.templating&#45;&gt;flask.sansio.scaffold</title>
<path fill="none" stroke="#888888" d="M719.98,-600.9C708.68,-594.62 695.78,-586.72 684.7,-579.3"/>
<polygon fill="#888888" stroke="#888888" points="686.15,-577.75 680.01,-576.1 683.78,-581.21 686.15,-577.75"/>
</g>
<!-- flask.globals&#45;&gt;flask.sessions -->
<g id="edge14" class="edge">
<title>flask.globals&#45;&gt;flask.sessions</title>
<path fill="none" stroke="#888888" d="M125.5,-985.16C141.21,-1023.18 177.59,-1111.25 195.57,-1154.75"/>
<polygon fill="#888888" stroke="#888888" points="193.58,-1155.44 197.81,-1160.18 197.46,-1153.84 193.58,-1155.44"/>
</g>
<!-- flask.globals&#45;&gt;flask.wrappers -->
<g id="edge17" class="edge">
<title>flask.globals&#45;&gt;flask.wrappers</title>
<path fill="none" stroke="#888888" d="M144.28,-956.59C175.72,-947.82 228.4,-936.73 262.71,-931.53"/>
<polygon fill="#888888" stroke="#888888" points="262.6,-933.67 268.24,-930.74 262,-929.52 262.6,-933.67"/>
</g>
<!-- flask.globals&#45;&gt;flask.app -->
<g id="edge16" class="edge">
<title>flask.globals&#45;&gt;flask.app</title>
<path fill="none" stroke="#888888" d="M120.61,-985.21C127.63,-1037.65 148.53,-1186.03 180,-1223 250.56,-1305.88 626.79,-1358 656.25,-1358 656.25,-1358 656.25,-1358 1137,-1358 1231.72,-1358 1293.81,-1019.92 1310.48,-922.72"/>
<polygon fill="#888888" stroke="#888888" points="1312.55,-923.12 1311.48,-916.86 1308.41,-922.42 1312.55,-923.12"/>
</g>
<!-- flask.globals&#45;&gt;flask.ctx -->
<g id="edge15" class="edge">
<title>flask.globals&#45;&gt;flask.ctx</title>
<path fill="none" stroke="#888888" d="M121.11,-948.53C128.54,-912.69 149.02,-833.44 180,-773 263.53,-610.05 287.74,-546.39 450.25,-462 695.92,-334.43 812.13,-359.41 1073,-452 1115.72,-467.16 1132.27,-466.68 1163,-500 1196.43,-536.25 1213.68,-593.34 1220.85,-626.49"/>
<polygon fill="#888888" stroke="#888888" points="1218.74,-626.64 1222,-632.1 1222.85,-625.8 1218.74,-626.64"/>
</g>
<!-- flask -->
<g id="node7" class="node">
<title>flask</title>
<polygon fill="none" stroke="black" points="1163,-829 1109,-829 1109,-793 1163,-793 1163,-829"/>
<text xml:space="preserve" text-anchor="middle" x="1136" y="-807.33" font-family="Helvetica,sans-Serif" font-size="9.00">flask</text>
</g>
<!-- flask&#45;&gt;flask.signals -->
<g id="edge18" class="edge">
<title>flask&#45;&gt;flask.signals</title>
<path fill="none" stroke="#888888" d="M1162.42,-792.65C1195.74,-770.45 1256.82,-736 1315,-736 1315,-736 1315,-736 1500.25,-736 1551.65,-736 1609.59,-720.66 1645.01,-709.47"/>
<polygon fill="#888888" stroke="#888888" points="1645.28,-711.59 1650.35,-707.76 1643.99,-707.59 1645.28,-711.59"/>
</g>
<!-- flask&#45;&gt;flask.config -->
<g id="edge23" class="edge">
<title>flask&#45;&gt;flask.config</title>
<path fill="none" stroke="#888888" d="M1140.13,-792.53C1153.43,-714.1 1205.24,-408.53 1220.65,-317.64"/>
<polygon fill="#888888" stroke="#888888" points="1222.72,-318.01 1221.65,-311.74 1218.58,-317.31 1222.72,-318.01"/>
</g>
<!-- flask&#45;&gt;flask.templating -->
<g id="edge19" class="edge">
<title>flask&#45;&gt;flask.templating</title>
<path fill="none" stroke="#888888" d="M1108.86,-806.84C1050.85,-796.52 909.04,-765.29 815,-694 793.18,-677.46 796.11,-665.38 779,-644 776.85,-641.31 774.55,-638.55 772.23,-635.83"/>
<polygon fill="#888888" stroke="#888888" points="773.97,-634.63 768.45,-631.48 770.8,-637.39 773.97,-634.63"/>
</g>
<!-- flask&#45;&gt;flask.globals -->
<g id="edge21" class="edge">
<title>flask&#45;&gt;flask.globals</title>
<path fill="none" stroke="#888888" d="M1134.34,-829.38C1132,-869.13 1121.35,-964.21 1073,-1023 996.2,-1116.37 689.15,-1226 568.25,-1226 296.12,-1226 296.12,-1226 296.12,-1226 243.83,-1226 218.62,-1242.27 180,-1207 148.28,-1178.04 128.33,-1048.32 121.08,-992.59"/>
<polygon fill="#888888" stroke="#888888" points="123.18,-992.42 120.34,-986.73 119.01,-992.95 123.18,-992.42"/>
</g>
<!-- flask.blueprints -->
<g id="node8" class="node">
<title>flask.blueprints</title>
<polygon fill="none" stroke="black" points="980.5,-614 924,-614 924,-578 980.5,-578 980.5,-614"/>
<text xml:space="preserve" text-anchor="middle" x="952.25" y="-592.33" font-family="Helvetica,sans-Serif" font-size="9.00">blueprints</text>
</g>
<!-- flask&#45;&gt;flask.blueprints -->
<g id="edge24" class="edge">
<title>flask&#45;&gt;flask.blueprints</title>
<path fill="none" stroke="#888888" d="M1119.54,-792.72C1086.72,-753.88 1010.06,-663.2 973.43,-619.87"/>
<polygon fill="#888888" stroke="#888888" points="975.2,-618.71 969.72,-615.49 971.99,-621.42 975.2,-618.71"/>
</g>
<!-- flask&#45;&gt;flask.wrappers -->
<g id="edge26" class="edge">
<title>flask&#45;&gt;flask.wrappers</title>
<path fill="none" stroke="#888888" d="M1123.36,-829.18C1099.51,-859.11 1042.12,-916.6 980.5,-942 748.66,-1037.57 433.7,-973.05 331.57,-942.75"/>
<polygon fill="#888888" stroke="#888888" points="332.39,-940.8 326.03,-941.07 331.17,-944.82 332.39,-940.8"/>
</g>
<!-- flask&#45;&gt;flask.app -->
<g id="edge27" class="edge">
<title>flask&#45;&gt;flask.app</title>
<path fill="none" stroke="#888888" d="M1163.26,-818.73C1194.95,-831.79 1248.21,-857.39 1282.46,-875.92"/>
<polygon fill="#888888" stroke="#888888" points="1281.03,-877.53 1287.3,-878.57 1283.04,-873.85 1281.03,-877.53"/>
</g>
<!-- flask&#45;&gt;flask.ctx -->
<g id="edge20" class="edge">
<title>flask&#45;&gt;flask.ctx</title>
<path fill="none" stroke="#888888" d="M1142.24,-792.54C1151.46,-766.5 1171.88,-719.01 1198.24,-676.52"/>
<polygon fill="#888888" stroke="#888888" points="1199.94,-677.76 1201.37,-671.57 1196.39,-675.52 1199.94,-677.76"/>
</g>
<!-- flask&#45;&gt;flask.helpers -->
<g id="edge25" class="edge">
<title>flask&#45;&gt;flask.helpers</title>
<path fill="none" stroke="#888888" d="M1145.85,-792.75C1156.2,-773.02 1175.03,-741.77 1199,-722 1287.97,-648.65 1338.88,-678.78 1436.25,-617 1480.94,-588.64 1495.51,-582.09 1526.25,-539 1555.08,-498.6 1573.17,-442.87 1581.93,-410.72"/>
<polygon fill="#888888" stroke="#888888" points="1583.96,-411.26 1583.47,-404.92 1579.9,-410.18 1583.96,-411.26"/>
</g>
<!-- flask.json -->
<g id="node23" class="node">
<title>flask.json</title>
<polygon fill="none" stroke="black" points="414.25,-1035 360.25,-1035 360.25,-999 414.25,-999 414.25,-1035"/>
<text xml:space="preserve" text-anchor="middle" x="387.25" y="-1013.33" font-family="Helvetica,sans-Serif" font-size="9.00">json</text>
</g>
<!-- flask&#45;&gt;flask.json -->
<g id="edge22" class="edge">
<title>flask&#45;&gt;flask.json</title>
<path fill="none" stroke="#888888" d="M1134.29,-829.34C1131.83,-865.67 1120.97,-946.92 1073,-989 881.3,-1157.16 530.63,-1063.38 421.54,-1028.39"/>
<polygon fill="#888888" stroke="#888888" points="422.2,-1026.39 415.85,-1026.54 420.91,-1030.39 422.2,-1026.39"/>
</g>
<!-- flask.blueprints&#45;&gt;flask.globals -->
<g id="edge29" class="edge">
<title>flask.blueprints&#45;&gt;flask.globals</title>
<path fill="none" stroke="#888888" d="M923.92,-578.63C862.62,-540.33 715.07,-452 658.25,-452 566.25,-452 566.25,-452 566.25,-452 434.6,-452 193.94,-839.72 132.56,-942.33"/>
<polygon fill="#888888" stroke="#888888" points="130.82,-941.14 129.55,-947.37 134.43,-943.29 130.82,-941.14"/>
</g>
<!-- flask.cli -->
<g id="node9" class="node">
<title>flask.cli</title>
<polygon fill="none" stroke="black" points="1526.25,-915 1472.25,-915 1472.25,-879 1526.25,-879 1526.25,-915"/>
<text xml:space="preserve" text-anchor="middle" x="1499.25" y="-893.33" font-family="Helvetica,sans-Serif" font-size="9.00">cli</text>
</g>
<!-- flask.blueprints&#45;&gt;flask.cli -->
<g id="edge30" class="edge">
<title>flask.blueprints&#45;&gt;flask.cli</title>
<path fill="none" stroke="#888888" d="M980.77,-591.45C1049.8,-580.07 1229.01,-550.73 1289,-543 1328.87,-537.86 1338.85,-536 1379,-534 1404.41,-532.73 1416.8,-517.59 1436.25,-534 1487.86,-577.54 1496.51,-796.4 1497.96,-871.59"/>
<polygon fill="#888888" stroke="#888888" points="1495.86,-871.34 1498.06,-877.3 1500.05,-871.27 1495.86,-871.34"/>
</g>
<!-- flask.blueprints&#45;&gt;flask.wrappers -->
<g id="edge33" class="edge">
<title>flask.blueprints&#45;&gt;flask.wrappers</title>
<path fill="none" stroke="#888888" d="M931.91,-614.44C878.6,-663.23 723.24,-792 568.25,-792 476.25,-792 476.25,-792 476.25,-792 402.91,-792 341.46,-866.01 313.82,-905.63"/>
<polygon fill="#888888" stroke="#888888" points="312.19,-904.29 310.53,-910.43 315.65,-906.66 312.19,-904.29"/>
</g>
<!-- flask.blueprints&#45;&gt;flask.helpers -->
<g id="edge32" class="edge">
<title>flask.blueprints&#45;&gt;flask.helpers</title>
<path fill="none" stroke="#888888" d="M980.88,-583.9C1005.18,-573.22 1041.49,-557.2 1073,-543 1180.88,-494.39 1196.67,-432 1315,-432 1315,-432 1315,-432 1408.62,-432 1461.21,-432 1519.71,-412.92 1555.24,-399.07"/>
<polygon fill="#888888" stroke="#888888" points="1555.82,-401.1 1560.62,-396.94 1554.27,-397.19 1555.82,-401.1"/>
</g>
<!-- flask.sansio.blueprints -->
<g id="node19" class="node">
<title>flask.sansio.blueprints</title>
<polygon fill="none" stroke="black" points="1073,-534 1016.5,-534 1016.5,-498 1073,-498 1073,-534"/>
<text xml:space="preserve" text-anchor="middle" x="1044.75" y="-512.33" font-family="Helvetica,sans-Serif" font-size="9.00">blueprints</text>
</g>
<!-- flask.blueprints&#45;&gt;flask.sansio.blueprints -->
<g id="edge31" class="edge">
<title>flask.blueprints&#45;&gt;flask.sansio.blueprints</title>
<path fill="none" stroke="#888888" d="M973.79,-577.85C986.77,-566.37 1003.67,-551.43 1017.6,-539.11"/>
<polygon fill="#888888" stroke="#888888" points="1018.74,-540.91 1021.85,-535.36 1015.96,-537.76 1018.74,-540.91"/>
</g>
<!-- flask.blueprints&#45;&gt;flask.sansio.scaffold -->
<g id="edge28" class="edge">
<title>flask.blueprints&#45;&gt;flask.sansio.scaffold</title>
<path fill="none" stroke="#888888" d="M923.56,-592.98C896.01,-589.93 852.54,-584.96 815,-580 772.46,-574.38 723.56,-567.07 691.85,-562.22"/>
<polygon fill="#888888" stroke="#888888" points="692.31,-560.16 686.06,-561.33 691.67,-564.31 692.31,-560.16"/>
</g>
<!-- flask.cli&#45;&gt;flask.globals -->
<g id="edge37" class="edge">
<title>flask.cli&#45;&gt;flask.globals</title>
<path fill="none" stroke="#888888" d="M1497.02,-915.4C1489.64,-1018.8 1446.97,-1523 1317,-1523 566.25,-1523 566.25,-1523 566.25,-1523 361.76,-1523 295.15,-1441.99 180,-1273 148.62,-1226.94 127.65,-1057.43 120.61,-992.52"/>
<polygon fill="#888888" stroke="#888888" points="122.71,-992.38 119.98,-986.64 118.53,-992.83 122.71,-992.38"/>
</g>
<!-- flask.cli&#45;&gt;flask -->
<g id="edge34" class="edge">
<title>flask.cli&#45;&gt;flask</title>
<path fill="none" stroke="#888888" d="M1471.8,-890.35C1426.88,-879.1 1332.81,-855.7 1253,-837 1225.26,-830.5 1193.7,-823.45 1170.51,-818.33"/>
<polygon fill="#888888" stroke="#888888" points="1171.08,-816.31 1164.77,-817.07 1170.18,-820.41 1171.08,-816.31"/>
</g>
<!-- flask.cli&#45;&gt;flask.app -->
<g id="edge36" class="edge">
<title>flask.cli&#45;&gt;flask.app</title>
<path fill="none" stroke="#888888" d="M1471.86,-901.93C1439.77,-904.2 1385.54,-904.35 1350.52,-902.38"/>
<polygon fill="#888888" stroke="#888888" points="1350.99,-900.3 1344.87,-902.02 1350.72,-904.5 1350.99,-900.3"/>
</g>
<!-- flask.cli&#45;&gt;flask.helpers -->
<g id="edge35" class="edge">
<title>flask.cli&#45;&gt;flask.helpers</title>
<path fill="none" stroke="#888888" d="M1508.19,-878.65C1514.01,-864.51 1521.66,-844.34 1526.25,-826 1565.04,-671.1 1581.59,-479.09 1586.54,-410.68"/>
<polygon fill="#888888" stroke="#888888" points="1588.63,-410.97 1586.96,-404.84 1584.44,-410.67 1588.63,-410.97"/>
</g>
<!-- flask.wrappers&#45;&gt;flask.globals -->
<g id="edge39" class="edge">
<title>flask.wrappers&#45;&gt;flask.globals</title>
<path fill="none" stroke="#888888" d="M269.73,-940.44C238.24,-949.21 185.56,-960.3 151.3,-965.48"/>
<polygon fill="#888888" stroke="#888888" points="151.42,-963.34 145.78,-966.28 152.02,-967.5 151.42,-963.34"/>
</g>
<!-- flask.wrappers&#45;&gt;flask -->
<g id="edge40" class="edge">
<title>flask.wrappers&#45;&gt;flask</title>
<path fill="none" stroke="#888888" d="M324.59,-933.55C418.53,-951.86 743.1,-1021.87 980.5,-924 1030.86,-903.24 1078.4,-861.04 1107.11,-834.32"/>
<polygon fill="#888888" stroke="#888888" points="1108.54,-835.86 1111.49,-830.23 1105.67,-832.79 1108.54,-835.86"/>
</g>
<!-- flask.wrappers&#45;&gt;flask.debughelpers -->
<g id="edge38" class="edge">
<title>flask.wrappers&#45;&gt;flask.debughelpers</title>
<path fill="none" stroke="#888888" d="M316.1,-911.65C347.16,-887.16 413.59,-848 476.25,-848 476.25,-848 476.25,-848 658.25,-848 709.93,-848 768.96,-855.59 807.82,-863.6"/>
<polygon fill="#888888" stroke="#888888" points="807.05,-865.58 813.36,-864.78 807.93,-861.48 807.05,-865.58"/>
</g>
<!-- flask.wrappers&#45;&gt;flask.helpers -->
<g id="edge42" class="edge">
<title>flask.wrappers&#45;&gt;flask.helpers</title>
<path fill="none" stroke="#888888" d="M298.54,-911.52C302.56,-783.66 343.77,-38 748.62,-38 748.62,-38 748.62,-38 1408.62,-38 1552.18,-38 1581.37,-278.7 1586.98,-359.26"/>
<polygon fill="#888888" stroke="#888888" points="1584.87,-359.19 1587.35,-365.04 1589.06,-358.91 1584.87,-359.19"/>
</g>
<!-- flask.wrappers&#45;&gt;flask.json -->
<g id="edge41" class="edge">
<title>flask.wrappers&#45;&gt;flask.json</title>
<path fill="none" stroke="#888888" d="M322.67,-948.11C336.97,-961.25 354.7,-978.92 367.81,-993.18"/>
<polygon fill="#888888" stroke="#888888" points="366.16,-994.49 371.74,-997.53 369.28,-991.68 366.16,-994.49"/>
</g>
<!-- flask.app&#45;&gt;flask.signals -->
<g id="edge55" class="edge">
<title>flask.app&#45;&gt;flask.signals</title>
<path fill="none" stroke="#888888" d="M1343.35,-886.6C1396.91,-864.92 1521.42,-811.75 1616.25,-750 1629.18,-741.58 1642.43,-730.81 1653.35,-721.26"/>
<polygon fill="#888888" stroke="#888888" points="1654.6,-722.95 1657.69,-717.4 1651.81,-719.81 1654.6,-722.95"/>
</g>
<!-- flask.app&#45;&gt;flask.sessions -->
<g id="edge46" class="edge">
<title>flask.app&#45;&gt;flask.sessions</title>
<path fill="none" stroke="#888888" d="M1306.18,-915.31C1272.45,-976.26 1145.28,-1170.59 980.5,-1244 812.43,-1318.88 752.25,-1282 568.25,-1282 386.25,-1282 386.25,-1282 386.25,-1282 321.91,-1282 257.81,-1233.78 226.96,-1203.42"/>
<polygon fill="#888888" stroke="#888888" points="228.72,-1202.22 223.01,-1199.42 225.73,-1205.17 228.72,-1202.22"/>
</g>
<!-- flask.app&#45;&gt;flask.templating -->
<g id="edge44" class="edge">
<title>flask.app&#45;&gt;flask.templating</title>
<path fill="none" stroke="#888888" d="M1298.37,-878.76C1286.42,-866.22 1269.57,-849.61 1253,-837 1216.06,-808.88 1204.52,-804.76 1163,-784 1027.4,-716.19 858.49,-651.67 786.17,-624.94"/>
<polygon fill="#888888" stroke="#888888" points="787.25,-623.1 780.89,-622.99 785.8,-627.04 787.25,-623.1"/>
</g>
<!-- flask.app&#45;&gt;flask.globals -->
<g id="edge48" class="edge">
<title>flask.app&#45;&gt;flask.globals</title>
<path fill="none" stroke="#888888" d="M1312.65,-915.28C1299.95,-1003.19 1236.47,-1376 1137,-1376 656.25,-1376 656.25,-1376 656.25,-1376 626.79,-1376 250.56,-1323.88 180,-1241 148.28,-1203.74 127.3,-1053.28 120.45,-992.43"/>
<polygon fill="#888888" stroke="#888888" points="122.55,-992.37 119.81,-986.64 118.38,-992.83 122.55,-992.37"/>
</g>
<!-- flask.app&#45;&gt;flask -->
<g id="edge52" class="edge">
<title>flask.app&#45;&gt;flask</title>
<path fill="none" stroke="#888888" d="M1288.63,-889.22C1257.03,-876.19 1204.07,-850.74 1169.85,-832.25"/>
<polygon fill="#888888" stroke="#888888" points="1170.86,-830.41 1164.59,-829.37 1168.85,-834.09 1170.86,-830.41"/>
</g>
<!-- flask.app&#45;&gt;flask.cli -->
<g id="edge50" class="edge">
<title>flask.app&#45;&gt;flask.cli</title>
<path fill="none" stroke="#888888" d="M1343.36,-892.07C1375.44,-889.8 1429.66,-889.65 1464.69,-891.62"/>
<polygon fill="#888888" stroke="#888888" points="1464.23,-893.69 1470.35,-891.97 1464.5,-889.5 1464.23,-893.69"/>
</g>
<!-- flask.app&#45;&gt;flask.wrappers -->
<g id="edge54" class="edge">
<title>flask.app&#45;&gt;flask.wrappers</title>
<path fill="none" stroke="#888888" d="M1298.24,-915.31C1286.5,-927.3 1269.94,-942.61 1253,-953 1053.4,-1075.49 984.82,-1112 750.62,-1112 476.25,-1112 476.25,-1112 476.25,-1112 416.49,-1112 401.84,-1086.91 360.25,-1044 335.12,-1018.07 317.12,-979.96 307.16,-955.06"/>
<polygon fill="#888888" stroke="#888888" points="309.13,-954.33 304.99,-949.51 305.22,-955.86 309.13,-954.33"/>
</g>
<!-- flask.app&#45;&gt;flask.debughelpers -->
<g id="edge45" class="edge">
<title>flask.app&#45;&gt;flask.debughelpers</title>
<path fill="none" stroke="#888888" d="M1288.67,-895.92C1212.31,-892.78 990.21,-883.66 895.79,-879.78"/>
<polygon fill="#888888" stroke="#888888" points="896,-877.69 889.92,-879.54 895.83,-881.88 896,-877.69"/>
</g>
<!-- flask.app&#45;&gt;flask.ctx -->
<g id="edge47" class="edge">
<title>flask.app&#45;&gt;flask.ctx</title>
<path fill="none" stroke="#888888" d="M1306.88,-878.5C1289.96,-834.94 1251.13,-726.82 1234.64,-677.28"/>
<polygon fill="#888888" stroke="#888888" points="1236.72,-676.88 1232.85,-671.84 1232.73,-678.2 1236.72,-676.88"/>
</g>
<!-- flask.typing -->
<g id="node14" class="node">
<title>flask.typing</title>
<polygon fill="none" stroke="black" points="1434.62,-579 1380.62,-579 1380.62,-543 1434.62,-543 1434.62,-579"/>
<text xml:space="preserve" text-anchor="middle" x="1407.62" y="-557.33" font-family="Helvetica,sans-Serif" font-size="9.00">typing</text>
</g>
<!-- flask.app&#45;&gt;flask.typing -->
<g id="edge51" class="edge">
<title>flask.app&#45;&gt;flask.typing</title>
<path fill="none" stroke="#888888" d="M1321.82,-878.94C1336.8,-822.76 1382.61,-651.03 1399.91,-586.16"/>
<polygon fill="#888888" stroke="#888888" points="1401.88,-586.96 1401.39,-580.62 1397.82,-585.87 1401.88,-586.96"/>
</g>
<!-- flask.testing -->
<g id="node15" class="node">
<title>flask.testing</title>
<polygon fill="none" stroke="black" points="1434.62,-970 1380.62,-970 1380.62,-934 1434.62,-934 1434.62,-970"/>
<text xml:space="preserve" text-anchor="middle" x="1407.62" y="-948.33" font-family="Helvetica,sans-Serif" font-size="9.00">testing</text>
</g>
<!-- flask.app&#45;&gt;flask.testing -->
<g id="edge43" class="edge">
<title>flask.app&#45;&gt;flask.testing</title>
<path fill="none" stroke="#888888" d="M1343.41,-906.99C1354.91,-913.34 1368.37,-921.59 1379.9,-929.37"/>
<polygon fill="#888888" stroke="#888888" points="1378.71,-931.09 1384.84,-932.76 1381.09,-927.63 1378.71,-931.09"/>
</g>
<!-- flask.app&#45;&gt;flask.helpers -->
<g id="edge53" class="edge">
<title>flask.app&#45;&gt;flask.helpers</title>
<path fill="none" stroke="#888888" d="M1335.31,-878.65C1383.93,-829.75 1513.47,-698.4 1526.25,-674 1572.88,-584.96 1584.45,-462.99 1587.31,-410.61"/>
<polygon fill="#888888" stroke="#888888" points="1589.4,-411.01 1587.6,-404.91 1585.2,-410.79 1589.4,-411.01"/>
</g>
<!-- flask.app&#45;&gt;flask.sansio.app -->
<g id="edge49" class="edge">
<title>flask.app&#45;&gt;flask.sansio.app</title>
<path fill="none" stroke="#888888" d="M1288.71,-910.66C1245.23,-932.4 1155.01,-973.94 1073,-989 954.39,-1010.78 917.35,-968.77 815,-905 721.06,-846.47 688.31,-832.23 630.25,-738 592.94,-677.45 577.15,-593.37 571.28,-551.63"/>
<polygon fill="#888888" stroke="#888888" points="573.38,-551.51 570.5,-545.84 569.22,-552.07 573.38,-551.51"/>
</g>
<!-- flask.debughelpers&#45;&gt;flask.globals -->
<g id="edge58" class="edge">
<title>flask.debughelpers&#45;&gt;flask.globals</title>
<path fill="none" stroke="#888888" d="M831.8,-896.44C780.24,-945.23 629.8,-1074 478.25,-1074 296.12,-1074 296.12,-1074 296.12,-1074 231.67,-1074 170.42,-1021.88 139.3,-990.39"/>
<polygon fill="#888888" stroke="#888888" points="140.95,-989.08 135.26,-986.24 137.93,-992 140.95,-989.08"/>
</g>
<!-- flask.debughelpers&#45;&gt;flask.blueprints -->
<g id="edge59" class="edge">
<title>flask.debughelpers&#45;&gt;flask.blueprints</title>
<path fill="none" stroke="#888888" d="M862.92,-859.7C870.55,-845.82 880.78,-826.1 888,-808 914.2,-742.34 935.42,-661.52 945.28,-621.27"/>
<polygon fill="#888888" stroke="#888888" points="947.25,-622.04 946.63,-615.71 943.17,-621.04 947.25,-622.04"/>
</g>
<!-- flask.debughelpers&#45;&gt;flask.wrappers -->
<g id="edge60" class="edge">
<title>flask.debughelpers&#45;&gt;flask.wrappers</title>
<path fill="none" stroke="#888888" d="M814.84,-878.41C776.34,-874.57 713.15,-866 658.25,-866 476.25,-866 476.25,-866 476.25,-866 422.13,-866 365.21,-895.2 330.69,-914.39"/>
<polygon fill="#888888" stroke="#888888" points="330.04,-912.35 325.83,-917.11 332.09,-916.01 330.04,-912.35"/>
</g>
<!-- flask.debughelpers&#45;&gt;flask.sansio.app -->
<g id="edge57" class="edge">
<title>flask.debughelpers&#45;&gt;flask.sansio.app</title>
<path fill="none" stroke="#888888" d="M821.12,-859.59C793.92,-842 752.87,-814.1 720.25,-786 676.43,-748.25 661,-740.99 630.25,-692 601.59,-646.34 583.11,-585.4 574.31,-551.5"/>
<polygon fill="#888888" stroke="#888888" points="576.36,-551.06 572.85,-545.76 572.29,-552.09 576.36,-551.06"/>
</g>
<!-- flask.debughelpers&#45;&gt;flask.sansio.scaffold -->
<g id="edge56" class="edge">
<title>flask.debughelpers&#45;&gt;flask.sansio.scaffold</title>
<path fill="none" stroke="#888888" d="M838.21,-859.52C814.57,-823.78 761.47,-742.5 720.25,-672 702.33,-641.35 683.14,-605.18 670.94,-581.7"/>
<polygon fill="#888888" stroke="#888888" points="672.86,-580.85 668.23,-576.49 669.13,-582.78 672.86,-580.85"/>
</g>
<!-- flask.ctx&#45;&gt;flask.signals -->
<g id="edge68" class="edge">
<title>flask.ctx&#45;&gt;flask.signals</title>
<path fill="none" stroke="#888888" d="M1253.21,-654.67C1330.63,-662.56 1558.24,-685.77 1644.55,-694.56"/>
<polygon fill="#888888" stroke="#888888" points="1644.28,-696.65 1650.46,-695.17 1644.7,-692.47 1644.28,-696.65"/>
</g>
<!-- flask.ctx&#45;&gt;flask.sessions -->
<g id="edge61" class="edge">
<title>flask.ctx&#45;&gt;flask.sessions</title>
<path fill="none" stroke="#888888" d="M1222.44,-670.34C1213.05,-731.83 1175.53,-933.91 1073,-1060 926.98,-1239.56 799.68,-1188 568.25,-1188 386.25,-1188 386.25,-1188 386.25,-1188 335.78,-1188 277.36,-1184.76 241.55,-1182.4"/>
<polygon fill="#888888" stroke="#888888" points="241.9,-1180.32 235.77,-1182.02 241.62,-1184.51 241.9,-1180.32"/>
</g>
<!-- flask.ctx&#45;&gt;flask.globals -->
<g id="edge63" class="edge">
<title>flask.ctx&#45;&gt;flask.globals</title>
<path fill="none" stroke="#888888" d="M1219.68,-633.73C1211.89,-605.62 1194.74,-552.41 1163,-518 1132.27,-484.68 1115.72,-485.16 1073,-470 812.13,-377.41 695.92,-352.43 450.25,-480 287.74,-564.39 263.53,-628.05 180,-791 153.89,-841.94 135.23,-906.23 125.57,-941.47"/>
<polygon fill="#888888" stroke="#888888" points="123.59,-940.73 124.04,-947.08 127.65,-941.84 123.59,-940.73"/>
</g>
<!-- flask.ctx&#45;&gt;flask -->
<g id="edge65" class="edge">
<title>flask.ctx&#45;&gt;flask</title>
<path fill="none" stroke="#888888" d="M1215.45,-670.42C1210.23,-677.53 1203.85,-685.4 1199,-693 1179.33,-723.81 1161.55,-761.78 1150.13,-786.36"/>
<polygon fill="#888888" stroke="#888888" points="1148.34,-785.22 1147.72,-791.55 1152.15,-786.99 1148.34,-785.22"/>
</g>
<!-- flask.ctx&#45;&gt;flask.wrappers -->
<g id="edge67" class="edge">
<title>flask.ctx&#45;&gt;flask.wrappers</title>
<path fill="none" stroke="#888888" d="M1208.69,-670.3C1163.57,-719.43 1030.96,-853.92 888,-905 687.56,-976.62 424.16,-948.5 331.84,-935.32"/>
<polygon fill="#888888" stroke="#888888" points="332.2,-933.25 325.96,-934.47 331.59,-937.41 332.2,-933.25"/>
</g>
<!-- flask.ctx&#45;&gt;flask.app -->
<g id="edge62" class="edge">
<title>flask.ctx&#45;&gt;flask.app</title>
<path fill="none" stroke="#888888" d="M1235.12,-670.5C1252.03,-714.03 1290.82,-822.06 1307.33,-871.64"/>
<polygon fill="#888888" stroke="#888888" points="1305.25,-872.04 1309.13,-877.08 1309.24,-870.72 1305.25,-872.04"/>
</g>
<!-- flask.ctx&#45;&gt;flask.typing -->
<g id="edge64" class="edge">
<title>flask.ctx&#45;&gt;flask.typing</title>
<path fill="none" stroke="#888888" d="M1249.99,-633.7C1261.32,-625.21 1275.44,-615.39 1289,-608 1316.42,-593.07 1349.61,-580.24 1373.73,-571.78"/>
<polygon fill="#888888" stroke="#888888" points="1374.18,-573.84 1379.16,-569.9 1372.81,-569.88 1374.18,-573.84"/>
</g>
<!-- flask.ctx&#45;&gt;flask.helpers -->
<g id="edge66" class="edge">
<title>flask.ctx&#45;&gt;flask.helpers</title>
<path fill="none" stroke="#888888" d="M1253.43,-649.24C1295.53,-643.75 1378.9,-628.29 1436.25,-588 1504.3,-540.19 1554.68,-452.41 1576.42,-409.68"/>
<polygon fill="#888888" stroke="#888888" points="1578.17,-410.88 1578.98,-404.57 1574.41,-408.99 1578.17,-410.88"/>
</g>
<!-- flask.testing&#45;&gt;flask.sessions -->
<g id="edge69" class="edge">
<title>flask.testing&#45;&gt;flask.sessions</title>
<path fill="none" stroke="#888888" d="M1385.34,-970.4C1382.97,-973.11 1380.78,-976 1379,-979 1375.7,-984.57 1256.38,-1422.48 1253,-1428 1244.79,-1441.41 1242.73,-1452 1227,-1452 656.25,-1452 656.25,-1452 656.25,-1452 466.29,-1452 415,-1391.72 270,-1269 248.91,-1251.15 231.63,-1224.53 220.72,-1205.06"/>
<polygon fill="#888888" stroke="#888888" points="222.58,-1204.08 217.86,-1199.82 218.9,-1206.09 222.58,-1204.08"/>
</g>
<!-- flask.testing&#45;&gt;flask.cli -->
<g id="edge70" class="edge">
<title>flask.testing&#45;&gt;flask.cli</title>
<path fill="none" stroke="#888888" d="M1435.03,-935.8C1444.69,-929.87 1455.74,-923.09 1465.87,-916.87"/>
<polygon fill="#888888" stroke="#888888" points="1466.73,-918.81 1470.74,-913.88 1464.53,-915.23 1466.73,-918.81"/>
</g>
<!-- flask.testing&#45;&gt;flask.app -->
<g id="edge71" class="edge">
<title>flask.testing&#45;&gt;flask.app</title>
<path fill="none" stroke="#888888" d="M1380.24,-942.02C1368.57,-935.58 1354.88,-927.17 1343.22,-919.3"/>
<polygon fill="#888888" stroke="#888888" points="1344.72,-917.78 1338.58,-916.1 1342.33,-921.23 1344.72,-917.78"/>
</g>
<!-- flask.helpers&#45;&gt;flask.signals -->
<g id="edge73" class="edge">
<title>flask.helpers&#45;&gt;flask.signals</title>
<path fill="none" stroke="#888888" d="M1595.36,-403.18C1610.31,-456.34 1653.96,-611.59 1671.16,-672.79"/>
<polygon fill="#888888" stroke="#888888" points="1669.07,-673.1 1672.71,-678.31 1673.11,-671.97 1669.07,-673.1"/>
</g>
<!-- flask.helpers&#45;&gt;flask.globals -->
<g id="edge74" class="edge">
<title>flask.helpers&#45;&gt;flask.globals</title>
<path fill="none" stroke="#888888" d="M1586.72,-366.86C1581.36,-306.75 1561.77,-115.16 1526.25,-66 1491.14,-17.41 1468.57,0 1408.62,0 296.12,0 296.12,0 296.12,0 197.5,0 131.78,-788.03 119.93,-941.33"/>
<polygon fill="#888888" stroke="#888888" points="117.86,-940.89 119.49,-947.04 122.04,-941.22 117.86,-940.89"/>
</g>
<!-- flask.helpers&#45;&gt;flask.wrappers -->
<g id="edge72" class="edge">
<title>flask.helpers&#45;&gt;flask.wrappers</title>
<path fill="none" stroke="#888888" d="M1587.02,-366.9C1581.49,-297.74 1552.49,-56 1408.62,-56 748.62,-56 748.62,-56 748.62,-56 355.11,-56 305.16,-760.46 298.98,-904.52"/>
<polygon fill="#888888" stroke="#888888" points="296.89,-904.12 298.75,-910.2 301.09,-904.29 296.89,-904.12"/>
</g>
<!-- flask.__main__ -->
<g id="node17" class="node">
<title>flask.__main__</title>
<polygon fill="none" stroke="black" points="1436.25,-1024 1379,-1024 1379,-988 1436.25,-988 1436.25,-1024"/>
<text xml:space="preserve" text-anchor="middle" x="1407.62" y="-1002.33" font-family="Helvetica,sans-Serif" font-size="9.00">__main__</text>
</g>
<!-- flask.__main__&#45;&gt;flask.cli -->
<g id="edge75" class="edge">
<title>flask.__main__&#45;&gt;flask.cli</title>
<path fill="none" stroke="#888888" d="M1428.02,-987.77C1430.86,-984.9 1433.68,-981.92 1436.25,-979 1452.64,-960.39 1469.5,-937.83 1481.5,-921.09"/>
<polygon fill="#888888" stroke="#888888" points="1483.04,-922.54 1484.81,-916.43 1479.62,-920.1 1483.04,-922.54"/>
</g>
<!-- flask.views -->
<g id="node18" class="node">
<title>flask.views</title>
<polygon fill="none" stroke="black" points="54,-1470 0,-1470 0,-1434 54,-1434 54,-1470"/>
<text xml:space="preserve" text-anchor="middle" x="27" y="-1448.33" font-family="Helvetica,sans-Serif" font-size="9.00">views</text>
</g>
<!-- flask.views&#45;&gt;flask.globals -->
<g id="edge76" class="edge">
<title>flask.views&#45;&gt;flask.globals</title>
<path fill="none" stroke="#888888" d="M31.34,-1433.58C44.87,-1359.01 95.61,-1079.36 111.33,-992.74"/>
<polygon fill="#888888" stroke="#888888" points="113.38,-993.21 112.38,-986.93 109.25,-992.46 113.38,-993.21"/>
</g>
<!-- flask.views&#45;&gt;flask -->
<g id="edge78" class="edge">
<title>flask.views&#45;&gt;flask</title>
<path fill="none" stroke="#888888" d="M54.13,-1448.07C106.21,-1439.9 226.36,-1419.37 324.25,-1390 626.01,-1299.46 707.35,-1278.99 980.5,-1122 1023.41,-1097.34 1045.18,-1100.93 1073,-1060 1115.44,-997.56 1089.7,-966.98 1109,-894 1114.16,-874.5 1121.01,-852.76 1126.38,-836.42"/>
<polygon fill="#888888" stroke="#888888" points="1128.37,-837.12 1128.26,-830.76 1124.38,-835.79 1128.37,-837.12"/>
</g>
<!-- flask.views&#45;&gt;flask.typing -->
<g id="edge77" class="edge">
<title>flask.views&#45;&gt;flask.typing</title>
<path fill="none" stroke="#888888" d="M54.43,-1469.92C88.09,-1490.95 148.77,-1523 206,-1523 206,-1523 206,-1523 298.12,-1523 464.5,-1523 489.87,-1414 656.25,-1414 656.25,-1414 656.25,-1414 1137,-1414 1315.33,-1414 1390.68,-727.61 1404.31,-586.27"/>
<polygon fill="#888888" stroke="#888888" points="1406.36,-586.89 1404.84,-580.72 1402.18,-586.49 1406.36,-586.89"/>
</g>
<!-- flask.sansio.blueprints&#45;&gt;flask -->
<g id="edge82" class="edge">
<title>flask.sansio.blueprints&#45;&gt;flask</title>
<path fill="none" stroke="#888888" d="M1051.33,-534.45C1066.7,-585.26 1109.67,-727.27 1127.3,-785.55"/>
<polygon fill="#888888" stroke="#888888" points="1125.23,-785.97 1128.98,-791.1 1129.25,-784.75 1125.23,-785.97"/>
</g>
<!-- flask.sansio.blueprints&#45;&gt;flask.typing -->
<g id="edge81" class="edge">
<title>flask.sansio.blueprints&#45;&gt;flask.typing</title>
<path fill="none" stroke="#888888" d="M1073.47,-519.46C1138.76,-527.6 1302.04,-547.96 1372.91,-556.8"/>
<polygon fill="#888888" stroke="#888888" points="1372.57,-558.87 1378.78,-557.53 1373.09,-554.7 1372.57,-558.87"/>
</g>
<!-- flask.sansio.blueprints&#45;&gt;flask.sansio.app -->
<g id="edge79" class="edge">
<title>flask.sansio.blueprints&#45;&gt;flask.sansio.app</title>
<path fill="none" stroke="#888888" d="M1016.39,-512.41C960.55,-500.05 829.49,-467.49 720.25,-485 678.1,-491.76 631.78,-508.42 601.48,-518.71"/>
<polygon fill="#888888" stroke="#888888" points="600.97,-516.67 595.95,-520.57 602.31,-520.65 600.97,-516.67"/>
</g>
<!-- flask.sansio.blueprints&#45;&gt;flask.sansio.scaffold -->
<g id="edge80" class="edge">
<title>flask.sansio.blueprints&#45;&gt;flask.sansio.scaffold</title>
<path fill="none" stroke="#888888" d="M1016.04,-518.95C946.96,-526.29 767.3,-545.4 692.12,-553.4"/>
<polygon fill="#888888" stroke="#888888" points="692,-551.3 686.25,-554.02 692.44,-555.48 692,-551.3"/>
</g>
<!-- flask.sansio.app&#45;&gt;flask.logging -->
<g id="edge88" class="edge">
<title>flask.sansio.app&#45;&gt;flask.logging</title>
<path fill="none" stroke="#888888" d="M540.11,-514.08C493.54,-488.6 392.25,-433 298.12,-433 206,-433 206,-433 206,-433 155.66,-433 97.3,-433 61.52,-430.68"/>
<polygon fill="#888888" stroke="#888888" points="61.89,-428.6 55.75,-430.26 61.58,-432.79 61.89,-428.6"/>
</g>
<!-- flask.sansio.app&#45;&gt;flask.config -->
<g id="edge91" class="edge">
<title>flask.sansio.app&#45;&gt;flask.config</title>
<path fill="none" stroke="#888888" d="M577.34,-507.76C588.48,-491.41 608.54,-468.81 630.25,-455 784.31,-356.99 839.58,-360.18 1016.5,-315 1077.13,-299.52 1149.71,-290.45 1191.28,-288.8"/>
<polygon fill="#888888" stroke="#888888" points="1191.22,-290.91 1197.15,-288.63 1191.09,-286.71 1191.22,-290.91"/>
</g>
<!-- flask.sansio.app&#45;&gt;flask.templating -->
<g id="edge85" class="edge">
<title>flask.sansio.app&#45;&gt;flask.templating</title>
<path fill="none" stroke="#888888" d="M590.93,-544.48C601.77,-554.91 615.57,-567.13 630.25,-575 655.89,-588.75 688.21,-595.81 712.6,-600.8"/>
<polygon fill="#888888" stroke="#888888" points="712.11,-602.84 718.41,-601.98 712.95,-598.73 712.11,-602.84"/>
</g>
<!-- flask.sansio.app&#45;&gt;flask -->
<g id="edge90" class="edge">
<title>flask.sansio.app&#45;&gt;flask</title>
<path fill="none" stroke="#888888" d="M578.77,-544.35C590.13,-563.36 609.42,-593.39 630.25,-616 702.1,-694 723.53,-713.35 815,-767 895.28,-814.09 923.69,-817.02 1016.5,-824 1041.54,-825.88 1048.02,-826.59 1073,-824 1082.32,-823.03 1092.31,-821.27 1101.48,-819.35"/>
<polygon fill="#888888" stroke="#888888" points="1101.75,-821.44 1107.16,-818.11 1100.85,-817.34 1101.75,-821.44"/>
</g>
<!-- flask.sansio.app&#45;&gt;flask.ctx -->
<g id="edge87" class="edge">
<title>flask.sansio.app&#45;&gt;flask.ctx</title>
<path fill="none" stroke="#888888" d="M587.62,-507.67C599.13,-497.86 614.51,-486.49 630.25,-480 667.62,-464.6 679.94,-469.9 720.25,-467 876.93,-455.74 932.71,-418.33 1073,-489 1136.21,-520.84 1186.69,-590.4 1210.36,-627.52"/>
<polygon fill="#888888" stroke="#888888" points="1208.42,-628.38 1213.4,-632.34 1211.98,-626.14 1208.42,-628.38"/>
</g>
<!-- flask.sansio.app&#45;&gt;flask.typing -->
<g id="edge89" class="edge">
<title>flask.sansio.app&#45;&gt;flask.typing</title>
<path fill="none" stroke="#888888" d="M573.51,-507.89C592.96,-444.81 667.35,-234.36 815,-156 879.97,-121.52 908.27,-142.09 980.5,-156 1108.59,-180.67 1156.35,-177.4 1253,-265 1338.6,-342.58 1384.09,-479.06 1400,-535.48"/>
<polygon fill="#888888" stroke="#888888" points="1397.93,-535.9 1401.56,-541.12 1401.98,-534.78 1397.93,-535.9"/>
</g>
<!-- flask.sansio.app&#45;&gt;flask.testing -->
<g id="edge84" class="edge">
<title>flask.sansio.app&#45;&gt;flask.testing</title>
<path fill="none" stroke="#888888" d="M570.24,-544.28C580.04,-625.23 630.36,-954.89 815,-1126 958.82,-1259.28 1092.09,-1291.06 1253,-1179 1339.21,-1118.96 1312.98,-1060.72 1379,-979 1379.89,-977.9 1380.81,-976.81 1381.76,-975.72"/>
<polygon fill="#888888" stroke="#888888" points="1383.17,-977.29 1385.68,-971.45 1380.08,-974.45 1383.17,-977.29"/>
</g>
<!-- flask.sansio.app&#45;&gt;flask.helpers -->
<g id="edge92" class="edge">
<title>flask.sansio.app&#45;&gt;flask.helpers</title>
<path fill="none" stroke="#888888" d="M570.62,-507.68C576.55,-465.28 594.23,-357.72 630.25,-275 668.62,-186.87 652.5,-94 748.62,-94 748.62,-94 748.62,-94 1045.75,-94 1166.6,-94 1194.15,-132 1315,-132 1315,-132 1315,-132 1408.62,-132 1519.4,-132 1568.11,-295.25 1582.99,-359.48"/>
<polygon fill="#888888" stroke="#888888" points="1580.94,-359.94 1584.31,-365.33 1585.04,-359.01 1580.94,-359.94"/>
</g>
<!-- flask.sansio.app&#45;&gt;flask.sansio.blueprints -->
<g id="edge93" class="edge">
<title>flask.sansio.app&#45;&gt;flask.sansio.blueprints</title>
<path fill="none" stroke="#888888" d="M594.52,-507.97C624.32,-493.15 674.72,-474.3 720.25,-467 825.22,-450.18 950.34,-479.59 1009.51,-499.99"/>
<polygon fill="#888888" stroke="#888888" points="1008.61,-501.9 1014.96,-501.92 1010.01,-497.94 1008.61,-501.9"/>
</g>
<!-- flask.sansio.app&#45;&gt;flask.sansio.scaffold -->
<g id="edge83" class="edge">
<title>flask.sansio.app&#45;&gt;flask.sansio.scaffold</title>
<path fill="none" stroke="#888888" d="M594.65,-535.3C603.53,-538.43 613.55,-541.96 622.89,-545.25"/>
<polygon fill="#888888" stroke="#888888" points="622.08,-547.19 628.44,-547.2 623.48,-543.23 622.08,-547.19"/>
</g>
<!-- flask.json.provider -->
<g id="node22" class="node">
<title>flask.json.provider</title>
<polygon fill="none" stroke="black" points="504.25,-572 450.25,-572 450.25,-536 504.25,-536 504.25,-572"/>
<text xml:space="preserve" text-anchor="middle" x="477.25" y="-550.33" font-family="Helvetica,sans-Serif" font-size="9.00">provider</text>
</g>
<!-- flask.sansio.app&#45;&gt;flask.json.provider -->
<g id="edge86" class="edge">
<title>flask.sansio.app&#45;&gt;flask.json.provider</title>
<path fill="none" stroke="#888888" d="M539.87,-540.64C530.99,-544 520.97,-547.3 511.63,-549.95"/>
<polygon fill="#888888" stroke="#888888" points="511.35,-547.85 506.11,-551.45 512.45,-551.9 511.35,-547.85"/>
</g>
<!-- flask.sansio.scaffold&#45;&gt;flask.templating -->
<g id="edge94" class="edge">
<title>flask.sansio.scaffold&#45;&gt;flask.templating</title>
<path fill="none" stroke="#888888" d="M684.39,-566.72C696.2,-573.17 710.13,-581.64 722,-589.58"/>
<polygon fill="#888888" stroke="#888888" points="720.6,-591.17 726.74,-592.82 722.97,-587.7 720.6,-591.17"/>
</g>
<!-- flask.sansio.scaffold&#45;&gt;flask -->
<g id="edge97" class="edge">
<title>flask.sansio.scaffold&#45;&gt;flask</title>
<path fill="none" stroke="#888888" d="M669,-575.36C680.13,-593.23 698.87,-620.34 720.25,-639 742.81,-658.69 757.28,-651.38 779,-672 800.73,-692.63 792.3,-709.44 815,-729 887.75,-791.68 921.91,-790.4 1016.5,-807 1044.86,-811.98 1077.6,-812.71 1101.47,-812.35"/>
<polygon fill="#888888" stroke="#888888" points="1101.42,-814.45 1107.38,-812.23 1101.34,-810.25 1101.42,-814.45"/>
</g>
<!-- flask.sansio.scaffold&#45;&gt;flask.typing -->
<g id="edge96" class="edge">
<title>flask.sansio.scaffold&#45;&gt;flask.typing</title>
<path fill="none" stroke="#888888" d="M684.3,-547.91C749.45,-526.22 924.87,-474.33 1073,-489 1184.63,-500.05 1313.6,-534.13 1373.22,-551.14"/>
<polygon fill="#888888" stroke="#888888" points="1372.34,-553.07 1378.69,-552.71 1373.5,-549.03 1372.34,-553.07"/>
</g>
<!-- flask.sansio.scaffold&#45;&gt;flask.helpers -->
<g id="edge95" class="edge">
<title>flask.sansio.scaffold&#45;&gt;flask.helpers</title>
<path fill="none" stroke="#888888" d="M670.16,-538.73C718.58,-466.92 908.82,-208 1135,-208 1135,-208 1135,-208 1408.62,-208 1494.17,-208 1553.77,-311.11 1577.2,-359.93"/>
<polygon fill="#888888" stroke="#888888" points="1575.29,-360.82 1579.75,-365.35 1579.09,-359.03 1575.29,-360.82"/>
</g>
<!-- flask.json.provider&#45;&gt;flask.sansio.app -->
<g id="edge98" class="edge">
<title>flask.json.provider&#45;&gt;flask.sansio.app</title>
<path fill="none" stroke="#888888" d="M504.65,-539.35C513.53,-535.99 523.55,-532.7 532.89,-530.04"/>
<polygon fill="#888888" stroke="#888888" points="533.16,-532.14 538.4,-528.55 532.06,-528.09 533.16,-532.14"/>
</g>
<!-- flask.json&#45;&gt;flask.globals -->
<g id="edge101" class="edge">
<title>flask.json&#45;&gt;flask.globals</title>
<path fill="none" stroke="#888888" d="M359.93,-1012.09C310.87,-1002.95 205.53,-983.31 151.48,-973.24"/>
<polygon fill="#888888" stroke="#888888" points="151.98,-971.2 145.7,-972.16 151.21,-975.33 151.98,-971.2"/>
</g>
<!-- flask.json&#45;&gt;flask.wrappers -->
<g id="edge99" class="edge">
<title>flask.json&#45;&gt;flask.wrappers</title>
<path fill="none" stroke="#888888" d="M361.37,-998.58C347.08,-985.43 329.44,-967.84 316.43,-953.67"/>
<polygon fill="#888888" stroke="#888888" points="318.1,-952.39 312.52,-949.35 314.99,-955.21 318.1,-952.39"/>
</g>
<!-- flask.json&#45;&gt;flask.json.provider -->
<g id="edge100" class="edge">
<title>flask.json&#45;&gt;flask.json.provider</title>
<path fill="none" stroke="#888888" d="M391.75,-998.56C405.46,-926.48 455.43,-663.53 471.35,-579.8"/>
<polygon fill="#888888" stroke="#888888" points="473.4,-580.26 472.45,-573.98 469.27,-579.48 473.4,-580.26"/>
</g>
<!-- flask.json.tag&#45;&gt;flask.json -->
<g id="edge102" class="edge">
<title>flask.json.tag&#45;&gt;flask.json</title>
<path fill="none" stroke="#888888" d="M312.28,-1112.68C327.32,-1093.24 351.14,-1062.42 367.67,-1041.03"/>
<polygon fill="#888888" stroke="#888888" points="369.19,-1042.5 371.2,-1036.47 365.87,-1039.93 369.19,-1042.5"/>
</g>
</g>
</svg>
